<svg width="190" height="50" viewBox="0 0 190 50" fill="none" xmlns="http://www.w3.org/2000/svg">
<path d="M0.542358 25.1476V21.7041C2.77245 21.7041 4.32696 21.2515 5.20588 20.3463C6.09791 19.428 6.54393 17.9391 6.54393 15.8796V10.8619C6.54393 8.64489 6.81941 6.82802 7.37038 5.41126C7.93446 3.99449 8.75435 2.89256 9.83004 2.10547C10.9057 1.31838 12.2176 0.773972 13.7655 0.472253C15.3134 0.157418 17.0713 0 19.039 0V5.47029C17.4911 5.47029 16.3039 5.68674 15.4774 6.11964C14.651 6.53942 14.0803 7.18877 13.7655 8.06769C13.4638 8.94661 13.3129 10.0682 13.3129 11.4325V17.8867C13.3129 18.8968 13.1424 19.8413 12.8013 20.7202C12.4602 21.5991 11.8371 22.3731 10.932 23.0421C10.0268 23.698 8.73467 24.2162 7.05554 24.5966C5.38953 24.9639 3.21847 25.1476 0.542358 25.1476ZM19.039 50C17.0713 50 15.3134 49.8426 13.7655 49.5277C12.2176 49.226 10.9057 48.6816 9.83004 47.8945C8.75435 47.1074 7.93446 46.0055 7.37038 44.5887C6.81941 43.172 6.54393 41.3551 6.54393 39.1381V34.1401C6.54393 32.0805 6.09791 30.5982 5.20588 29.693C4.32696 28.7748 2.77245 28.3156 0.542358 28.3156V24.8721C3.21847 24.8721 5.38953 25.0623 7.05554 25.4427C8.73467 25.81 10.0268 26.3282 10.932 26.9972C11.8371 27.6532 12.4602 28.4206 12.8013 29.2995C13.1424 30.1784 13.3129 31.1164 13.3129 32.1133V38.5675C13.3129 39.9318 13.4638 41.0534 13.7655 41.9323C14.0803 42.8112 14.651 43.4671 15.4774 43.9C16.3039 44.3329 17.4911 44.5494 19.039 44.5494V50ZM0.542358 28.3156V21.7041H6.78006V28.3156H0.542358Z" fill="white"/>
<rect x="26.0391" width="7" height="50" fill="white"/>
<path d="M59.9616 0L46.5032 50H40.0391L53.4975 0H59.9616Z" fill="white"/>
<path d="M63.4748 44.168C62.2377 44.168 61.1774 43.733 60.2938 42.863C59.4101 41.9929 58.9751 40.9326 58.9887 39.6819C58.9751 38.4584 59.4101 37.4116 60.2938 36.5416C61.1774 35.6716 62.2377 35.2365 63.4748 35.2365C64.6711 35.2365 65.7111 35.6716 66.5947 36.5416C67.492 37.4116 67.9474 38.4584 67.961 39.6819C67.9474 40.5111 67.7299 41.2656 67.3084 41.9454C66.9006 42.6251 66.3568 43.1688 65.6771 43.5767C65.011 43.9709 64.2769 44.168 63.4748 44.168Z" fill="white"/>
<path d="M93.4575 25.1476V21.7041C91.2274 21.7041 89.6729 21.2515 88.794 20.3463C87.902 19.428 87.4559 17.9391 87.4559 15.8796V10.8619C87.4559 8.64489 87.1805 6.82802 86.6295 5.41126C86.0654 3.99449 85.2455 2.89256 84.1698 2.10547C83.0941 1.31838 81.7823 0.773972 80.2344 0.472253C78.6864 0.157418 76.9286 0 74.9609 0V5.47029C76.5088 5.47029 77.696 5.68674 78.5225 6.11964C79.3489 6.53942 79.9195 7.18877 80.2344 8.06769C80.5361 8.94661 80.687 10.0682 80.687 11.4325V17.8867C80.687 18.8968 80.8575 19.8413 81.1986 20.7202C81.5396 21.5991 82.1628 22.3731 83.0679 23.0421C83.9731 23.698 85.2652 24.2162 86.9443 24.5966C88.6103 24.9639 90.7814 25.1476 93.4575 25.1476ZM74.9609 50C76.9286 50 78.6864 49.8426 80.2344 49.5277C81.7823 49.226 83.0941 48.6816 84.1698 47.8945C85.2455 47.1074 86.0654 46.0055 86.6295 44.5887C87.1805 43.172 87.4559 41.3551 87.4559 39.1381V34.1401C87.4559 32.0805 87.902 30.5982 88.794 29.693C89.6729 28.7748 91.2274 28.3156 93.4575 28.3156V24.8721C90.7814 24.8721 88.6103 25.0623 86.9443 25.4427C85.2652 25.81 83.9731 26.3282 83.0679 26.9972C82.1628 27.6532 81.5396 28.4206 81.1986 29.2995C80.8575 30.1784 80.687 31.1164 80.687 32.1133V38.5675C80.687 39.9318 80.5361 41.0534 80.2344 41.9323C79.9195 42.8112 79.3489 43.4671 78.5225 43.9C77.696 44.3329 76.5088 44.5494 74.9609 44.5494V50ZM93.4575 28.3156V21.7041H87.2198V28.3156H93.4575Z" fill="white"/>
<path d="M100.458 50C107.088 50 113.447 47.3661 118.135 42.6777C122.824 37.9893 125.458 31.6304 125.458 25C125.458 18.3696 122.824 12.0107 118.135 7.32233C113.447 2.63392 107.088 1.29099e-06 100.458 0L100.458 50Z" fill="white"/>
<path d="M132.458 50C139.088 50 145.447 47.3661 150.135 42.6777C154.824 37.9893 157.458 31.6304 157.458 25C157.458 18.3696 154.824 12.0107 150.135 7.32233C145.447 2.63392 139.088 1.29099e-06 132.458 0L132.458 50Z" fill="white"/>
<path d="M164.458 50C171.088 50 177.447 47.3661 182.135 42.6777C186.824 37.9893 189.458 31.6304 189.458 25C189.458 18.3696 186.824 12.0107 182.135 7.32233C177.447 2.63392 171.088 1.29099e-06 164.458 0L164.458 50Z" fill="white"/>
</svg>
