<svg xmlns="http://www.w3.org/2000/svg" width="70" fill="none" viewBox="0 0 100 100">
    <g fill="#7D7D7D" clip-path="url(#a)">
        <path
            d="M99 41.1c-.3-.2-2.8-2.1-8.1-2.1-1.4 0-2.8.1-4.2.4-1-7.1-6.9-10.5-7.2-10.7l-1.4-.8-.9 1.4c-1.2 1.8-2 3.8-2.5 6-1 4-.4 7.8 1.7 11.1-2.5 1.4-6.5 1.7-7.3 1.8h-66C1.4 48 0 49.4 0 51.1-.1 56.8.9 62.6 2.9 68c2.3 6 5.6 10.3 10 13 4.9 3 12.9 4.7 22 4.7 4.1 0 8.2-.4 12.2-1.1 5.6-1 11-3 15.9-5.8 4.1-2.4 7.8-5.4 10.9-8.9 5.2-5.9 8.3-12.5 10.6-18.3h.9c5.7 0 9.2-2.3 11.2-4.2 1.3-1.2 2.3-2.7 2.9-4.4l.4-1.2z" />
        <path
            d="M9.2 46H18c.4 0 .8-.3.8-.8v-7.9c0-.4-.3-.8-.8-.8H9.2c-.4 0-.8.3-.8.8v7.9c.1.5.4.8.8.8m12.2 0h8.8c.4 0 .8-.3.8-.8v-7.9c0-.4-.3-.8-.8-.8h-8.8c-.4 0-.8.3-.8.8v7.9c0 .5.4.8.8.8m12.3 0h8.8c.4 0 .8-.3.8-.8v-7.9c0-.4-.3-.8-.8-.8h-8.8c-.4 0-.8.3-.8.8v7.9c.1.5.4.8.8.8M46 46h8.8c.4 0 .8-.3.8-.8v-7.9c0-.4-.3-.8-.8-.8H46c-.4 0-.8.3-.8.8v7.9c0 .5.3.8.8.8M21.4 34.7h8.8c.4 0 .8-.3.8-.8V26c0-.4-.3-.8-.8-.8h-8.8c-.4 0-.8.3-.8.8v7.9c0 .5.4.8.8.8m12.3 0h8.8c.4 0 .8-.3.8-.8V26c0-.4-.3-.8-.8-.8h-8.8c-.4 0-.8.3-.8.8v7.9c.1.5.4.8.8.8m12.3 0h8.8c.4 0 .8-.3.8-.8V26c0-.4-.3-.8-.8-.8H46c-.4 0-.8.3-.8.8v7.9c0 .5.3.8.8.8m0-11.3h8.8c.4 0 .8-.3.8-.8v-7.9c0-.4-.3-.8-.8-.8H46c-.4 0-.8.3-.8.8v7.9c0 .5.3.8.8.8M58.3 46h8.8c.4 0 .8-.3.8-.8v-7.9c0-.4-.3-.8-.8-.8h-8.8c-.4 0-.8.3-.8.8v7.9c0 .5.3.8.8.8" />
    </g>
    <defs>
        <clipPath id="a">
            <path fill="#fff" d="M0 0h100v100H0z" />
        </clipPath>
    </defs>
</svg>