<svg xmlns="http://www.w3.org/2000/svg" width="70" fill="none" viewBox="0 0 100 100">
    <g fill="#909090" clip-path="url(#a)">
        <path
            d="M91.1 5.7c-1.4 3.5-3.3 6.6-5.4 9.4C76.6 5.9 64 0 50 0 22.5 0 0 22.3 0 49.9c0 14.4 6.2 27.4 16 36.6l1.9 1.7c8.6 7.3 19.9 11.7 32.1 11.7 26.3 0 47.9-20.5 49.7-46.3 1.5-12.6-2.3-28.7-8.6-47.9M23.2 86.9c-1.4 1.9-4.1 2.1-6 .6-1.9-1.4-2.1-4.1-.6-6 1.4-1.9 4.1-2.1 6-.6 1.7 1.5 2 4.2.6 6M90.8 72C78.5 88.4 52.1 82.8 35.3 83.6c0 0-3 .2-6 .6 0 0 1.1-.5 2.6-1 11.8-4.1 17.4-5 24.6-8.6 13.5-6.9 27-22 29.7-37.7-5.2 15-20.8 28-35 33.3-9.8 3.6-27.4 7.1-27.4 7.1l-.7-.4c-11.9-6-12.3-31.9 9.5-40.3 9.6-3.7 18.7-1.7 29.1-4.1 11-2.6 23.8-10.8 28.9-21.6 5.7 17.4 12.7 44.4.2 61.1" />
        <path d="M23.2 86.9c-1.4 1.9-4.1 2.1-6 .6-1.9-1.4-2.1-4.1-.6-6 1.4-1.9 4.1-2.1 6-.6 1.7 1.5 2 4.2.6 6" />
    </g>
    <defs>
        <clipPath id="a">
            <path fill="#fff" d="M0 0h100v100H0z" />
        </clipPath>
    </defs>
</svg>